<?xml version="1.0" encoding="UTF-8"?>
<svg xmlns="http://www.w3.org/2000/svg" width="190" height="50" viewBox="0 0 190 50" role="img" aria-label="GitHub">
  <defs>
    <linearGradient id="holo-gh" x1="0" y1="0" x2="1" y2="1">
      <stop offset="0%" stop-color="#e6edf3"/>
      <stop offset="18%" stop-color="#0d1117"/>
      <stop offset="38%" stop-color="#58a6ff"/>
      <stop offset="58%" stop-color="#8b949e"/>
      <stop offset="78%" stop-color="#0d1117"/>
      <stop offset="100%" stop-color="#e6edf3"/>
      <animateTransform attributeName="gradientTransform" type="rotate" from="0 0.5 0.5" to="360 0.5 0.5" dur="8s" repeatCount="indefinite"/>
    </linearGradient>
  </defs>
  <style>
    @media (prefers-reduced-motion: no-preference) {
      rect { animation: nx-fade 500ms ease-out both; }
      circle { animation: nx-icon 700ms cubic-bezier(0.34,1.56,0.64,1) 120ms both; transform-box: fill-box; transform-origin: center; }
      text { animation: nx-in 600ms cubic-bezier(0.16,1,0.3,1) both; }
      text:nth-of-type(1) { animation-delay: 160ms; }
      text:nth-of-type(2) { animation-delay: 260ms; }
      text:nth-of-type(3) { animation-delay: 340ms; }
      @keyframes nx-fade { from { opacity: 0; } to { opacity: 1; } }
      @keyframes nx-in { from { opacity: 0; transform: translateY(5px); } to { opacity: 1; transform: translateY(0); } }
      @keyframes nx-icon { 0% { opacity: 0; transform: scale(0.4); } 65% { opacity: 1; transform: scale(1.15); } 100% { opacity: 1; transform: scale(1); } }
    }
  </style>
  <rect x="1" y="2" width="188" height="46" rx="23" fill="#161b22" stroke="url(#holo-gh)" stroke-width="2"/>
  <rect x="2" y="3" width="186" height="44" rx="22" fill="none" stroke="#ffffff" stroke-opacity="0.22"/>
  <circle cx="28" cy="25" r="12" fill="#ffffff" fill-opacity="0.16"/>
  <circle cx="28" cy="25" r="12" fill="none" stroke="#ffffff" stroke-opacity="0" stroke-width="1.5">
    <animate attributeName="r" values="12;21;21" keyTimes="0;0.45;1" dur="5s" begin="1.8s" repeatCount="indefinite"/>
    <animate attributeName="stroke-opacity" values="0.35;0;0" keyTimes="0;0.45;1" dur="5s" begin="1.8s" repeatCount="indefinite"/>
  </circle>
  <g transform="translate(28,25) scale(0.58) translate(-12,-12)">
    <path fill="#ffffff" d="M12 0C5.37 0 0 5.37 0 12c0 5.31 3.435 9.795 8.205 11.385.6.105.825-.255.825-.57 0-.285-.015-1.23-.015-2.235-3.015.555-3.795-.735-4.035-1.41-.135-.345-.72-1.41-1.23-1.695-.42-.225-1.02-.78-.015-.795.945-.015 1.62.87 1.845 1.23 1.08 1.815 2.805 1.305 3.495.99.105-.78.42-1.305.765-1.605-2.67-.3-5.46-1.335-5.46-5.925 0-1.305.465-2.385 1.23-3.225-.12-.3-.54-1.53.12-3.18 0 0 1.005-.315 3.3 1.23.96-.27 1.98-.405 3-.405s2.04.135 3 .405c2.295-1.56 3.3-1.23 3.3-1.23.66 1.65.24 2.88.12 3.18.765.84 1.23 1.905 1.23 3.225 0 4.605-2.805 5.625-5.475 5.925.435.375.81 1.095.81 2.22 0 1.605-.015 2.895-.015 3.3 0 .315.225.69.825.57A12.02 12.02 0 0024 12c0-6.63-5.37-12-12-12z"/>
  </g>
  <text x="49" y="21" font-family="-apple-system,BlinkMacSystemFont,'Segoe UI',sans-serif" font-size="10" font-weight="850" letter-spacing="1.2" fill="#8b949e">GitHub</text>
  <text x="49" y="37" font-family="-apple-system,BlinkMacSystemFont,'Segoe UI',sans-serif" font-size="13" font-weight="800" fill="#e6edf3">@neelavradutta</text>
</svg>
